<svg width="21" height="20" viewBox="0 0 21 20" fill="none" xmlns="http://www.w3.org/2000/svg">
<path d="M10.9984 20C5.15844 20 0.398438 15.51 0.398438 10C0.398438 4.49 5.15844 0 10.9984 0C13.5984 0 16.0984 0.88 17.6884 2.35C18.2384 2.86 18.2484 3.7 17.7084 4.22C17.1684 4.74 16.2884 4.75 15.7284 4.24C14.6584 3.25 12.8384 2.64 10.9884 2.64C6.68844 2.64 3.18844 5.94 3.18844 10C3.18844 14.06 6.68844 17.36 10.9884 17.36C14.8084 17.36 16.7284 14.81 17.3684 12.18H10.7484C9.97844 12.18 9.34844 11.59 9.34844 10.86C9.34844 10.13 9.97844 9.54 10.7484 9.54H18.9884C19.3784 9.54 19.7484 9.69 20.0084 9.96C20.2684 10.23 20.4084 10.59 20.3784 10.95C19.9784 16.37 16.2084 20 10.9984 20Z" fill="white"/>
</svg>
