<svg width="78" height="105" viewBox="0 0 78 105" fill="none" xmlns="http://www.w3.org/2000/svg">
<path d="M56.9664 21.5311L56.7149 21.4542C53.9772 20.6165 51.1003 22.1619 50.2892 24.9059L47.562 34.1317C46.7509 36.8757 48.3127 39.7791 51.0504 40.6168L51.3019 40.6937C54.0396 41.5314 56.9166 39.986 57.7277 37.242L60.4548 28.0162C61.2659 25.2722 59.7041 22.3688 56.9664 21.5311Z" fill="#A30041"/>
<path d="M66.9448 39.3032L67.0063 39.0475C67.6759 36.2641 65.9686 33.4438 63.1929 32.748L53.8603 30.4085C51.0846 29.7127 48.2916 31.405 47.622 34.1883L47.5604 34.444C46.8908 37.2274 48.5981 40.0477 51.3738 40.7435L60.7064 43.083C63.4821 43.7787 66.2751 42.0865 66.9448 39.3032Z" fill="#FF006D"/>
<path d="M63.4144 29.0295C65.0506 31.8634 68.6525 32.847 71.4596 31.2263C74.2667 29.6056 75.2159 25.9945 73.5797 23.1606C71.9436 20.3266 68.3416 19.3431 65.5345 20.9638C62.7275 22.5844 61.7782 26.1956 63.4144 29.0295Z" fill="#FF006D"/>
<path d="M67.1143 49.0533L67.0537 48.7964C66.3941 45.9996 63.6073 44.251 60.8292 44.8908L51.4886 47.0417C48.7104 47.6814 46.9931 50.4672 47.6527 53.264L47.7133 53.5209C48.3729 56.3177 51.1597 58.0662 53.9379 57.4265L63.2785 55.2756C66.0566 54.6358 67.774 51.85 67.1143 49.0533Z" fill="#FF5900"/>
<path d="M56.8093 66.4767L57.0611 66.4048C59.8017 65.6225 61.3739 62.7507 60.5727 59.9904L57.8787 50.7099C57.0775 47.9496 54.2062 46.3462 51.4656 47.1286L51.2138 47.2005C48.4732 47.9828 46.901 50.8546 47.7022 53.6149L50.3962 62.8954C51.1974 65.6556 54.0687 67.259 56.8093 66.4767Z" fill="#FFAA00"/>
<path d="M63.9066 64.2776C65.5428 67.1115 69.1447 68.095 71.9518 66.4744C74.7589 64.8537 75.7081 61.2425 74.0719 58.4086C72.4357 55.5747 68.8338 54.5912 66.0267 56.2118C63.2196 57.8325 62.2704 61.4436 63.9066 64.2776Z" fill="#FFAA00"/>
<path d="M48.9478 70.7763L49.1385 70.599C51.2151 68.6696 51.3278 65.4011 49.3904 63.2987L42.8762 56.2299C40.9388 54.1274 37.6848 53.9872 35.6082 55.9166L35.4175 56.0939C33.3409 58.0233 33.2281 61.2918 35.1656 63.3942L41.6797 70.463C43.6172 72.5655 46.8712 72.7057 48.9478 70.7763Z" fill="#A4A804"/>
<path d="M28.2304 70.9758L28.4196 71.16C30.479 73.1643 33.7518 73.125 35.7297 71.0722L42.3797 64.1704C44.3576 62.1177 44.2915 58.8288 42.2321 56.8245L42.0429 56.6403C39.9835 54.636 36.7107 54.6753 34.7328 56.7281L28.0828 63.6299C26.1049 65.6826 26.171 68.9715 28.2304 70.9758Z" fill="#DBE000"/>
<path d="M33.7347 82.0041C35.3709 84.838 38.9729 85.8216 41.7799 84.2009C44.587 82.5803 45.5362 78.9691 43.9 76.1352C42.2639 73.3013 38.6619 72.3177 35.8548 73.9384C33.0478 75.559 32.0986 79.1702 33.7347 82.0041Z" fill="#DBE000"/>
<path d="M19.7797 66.127L20.0306 66.2058C22.7622 67.064 25.6507 65.5405 26.4824 62.8029L29.2785 53.5985C30.1102 50.8609 28.57 47.9459 25.8384 47.0877L25.5875 47.0088C22.8559 46.1506 19.9674 47.6742 19.1358 50.4118L16.3396 59.6162C15.508 62.3538 17.0481 65.2688 19.7797 66.127Z" fill="#009E99"/>
<path d="M9.93078 48.2811L9.86735 48.5364C9.1769 51.3144 10.8632 54.1474 13.6338 54.864L22.9492 57.2736C25.7198 57.9903 28.5256 56.3192 29.216 53.5412L29.2795 53.286C29.9699 50.508 28.2836 47.675 25.513 46.9583L16.1976 44.5487C13.427 43.8321 10.6212 45.5031 9.93078 48.2811Z" fill="#00D2D3"/>
<path d="M3.19566 64.4123C4.83183 67.2462 8.43379 68.2298 11.2409 66.6091C14.0479 64.9885 14.9971 61.3773 13.361 58.5434C11.7248 55.7095 8.12285 54.7259 5.31578 56.3466C2.5087 57.9672 1.5595 61.5784 3.19566 64.4123Z" fill="#00D2D3"/>
<path d="M9.83162 38.5315L9.8903 38.7888C10.5291 41.5903 13.3029 43.3597 16.0859 42.741L25.4429 40.6607C28.2259 40.042 29.9641 37.2694 29.3254 34.4679L29.2667 34.2106C28.6279 31.4091 25.8541 29.6396 23.0711 30.2584L13.7141 32.3387C10.9311 32.9574 9.19287 35.73 9.83162 38.5315Z" fill="#0098FF"/>
<path d="M20.2645 21.1877L20.0122 21.2577C17.2656 22.0193 15.6719 24.879 16.4526 27.6451L19.0773 36.9451C19.8579 39.7111 22.7173 41.336 25.4639 40.5744L25.7162 40.5045C28.4628 39.7429 30.0565 36.8831 29.2758 34.1171L26.6511 24.8171C25.8704 22.0511 23.011 20.4261 20.2645 21.1877Z" fill="#73CDFF"/>
<path d="M2.9613 29.1682C4.59746 32.0021 8.19942 32.9857 11.0065 31.365C13.8136 29.7443 14.7628 26.1332 13.1266 23.2992C11.4904 20.4653 7.88848 19.4818 5.08141 21.1024C2.27434 22.7231 1.32513 26.3343 2.9613 29.1682Z" fill="#73CDFF"/>
<path d="M28.6352 16.3157L28.4427 16.4931C26.3472 18.4245 26.2208 21.71 28.1603 23.8315L34.6815 30.9645C36.6211 33.086 39.8921 33.2401 41.9876 31.3087L42.1802 31.1313C44.2757 29.1999 44.4021 25.9143 42.4625 23.7928L35.9413 16.6599C34.0018 14.5384 30.7307 14.3843 28.6352 16.3157Z" fill="#282B89"/>
<path d="M48.8819 16.903L48.6941 16.7174C46.6496 14.6978 43.3763 14.7124 41.3831 16.7501L34.6813 23.6011C32.688 25.6387 32.7295 28.9278 34.774 30.9475L34.9618 31.133C37.0063 33.1527 40.2796 33.1381 42.2728 31.1004L48.9746 24.2494C50.9679 22.2117 50.9264 18.9226 48.8819 16.903Z" fill="#8688C0"/>
<path d="M33.266 11.6662C34.9021 14.5002 38.5041 15.4837 41.3112 13.863C44.1183 12.2424 45.0675 8.63121 43.4313 5.79729C41.7951 2.96336 38.1932 1.97982 35.3861 3.60049C32.579 5.22115 31.6298 8.83231 33.266 11.6662Z" fill="#8688C0"/>
<path d="M17.9326 97.2682C18.2709 96.623 18.7889 96.0874 19.4251 95.7249C20.169 95.3388 21.0024 95.1534 21.8416 95.1876C22.6807 95.2217 23.496 95.4742 24.2054 95.9195C24.9053 96.4337 25.397 97.1784 25.5918 98.0197H23.6657C23.5275 97.6188 23.2652 97.2713 22.916 97.0267C22.5299 96.778 22.0756 96.6538 21.6154 96.671C21.2849 96.6577 20.9557 96.72 20.6534 96.8531C20.3511 96.9861 20.0838 97.1863 19.8722 97.4382C19.4387 97.9504 19.2219 98.6639 19.2219 99.5854C19.2219 100.507 19.4477 101.223 19.8722 101.739C20.0827 101.993 20.3496 102.195 20.652 102.329C20.9545 102.463 21.2842 102.526 21.6154 102.513C22.6496 102.513 23.333 102.066 23.6657 101.171H25.5918C25.3698 101.998 24.8736 102.728 24.1828 103.242C23.4357 103.771 22.5332 104.041 21.6154 104.009C20.8487 104.024 20.0922 103.834 19.4251 103.459C18.7893 103.093 18.2717 102.556 17.9326 101.909C17.576 101.188 17.3906 100.395 17.3906 99.5921C17.3906 98.7889 17.576 97.9963 17.9326 97.2749V97.2682Z" fill="#0A0500"/>
<path d="M28.9115 103.452C28.2585 103.09 27.7216 102.553 27.3625 101.902C26.9748 101.192 26.7803 100.393 26.798 99.5853C26.7828 98.778 26.9829 97.981 27.3783 97.2749C27.7466 96.6206 28.2947 96.0831 28.9589 95.7249C29.6502 95.3693 30.4177 95.1836 31.1966 95.1836C31.9756 95.1836 32.7431 95.3693 33.4343 95.7249C34.0984 96.0833 34.6465 96.6207 35.015 97.2749C35.4103 97.981 35.6105 98.778 35.5953 99.5853C35.6062 100.393 35.3963 101.188 34.9879 101.887C34.6074 102.549 34.0463 103.092 33.3689 103.452C32.6751 103.822 31.8983 104.011 31.1108 104.003C30.3418 104.012 29.5836 103.823 28.9115 103.452ZM32.4069 102.142C32.8201 101.915 33.1592 101.576 33.3847 101.164C33.6483 100.68 33.7783 100.135 33.7618 99.5853C33.7781 99.0415 33.6537 98.5025 33.4005 98.0197C33.1824 97.6136 32.8518 97.2776 32.4476 97.0512C32.0545 96.8356 31.612 96.7239 31.1628 96.7269C30.717 96.7234 30.278 96.8351 29.8892 97.0512C29.4895 97.2768 29.1652 97.6135 28.9567 98.0197C28.7163 98.5064 28.5985 99.0436 28.6134 99.5853C28.6134 100.505 28.8505 101.215 29.3247 101.715C29.5517 101.96 29.8292 102.154 30.1385 102.284C30.4478 102.414 30.7817 102.477 31.1176 102.468C31.5684 102.47 32.0121 102.357 32.4069 102.142Z" fill="#0A0500"/>
<path d="M49.6193 95.6014C50.1572 95.8796 50.5985 96.3112 50.886 96.8405C51.2055 97.4526 51.361 98.1357 51.3376 98.8244V103.861H49.5673V99.0883C49.5673 98.3234 49.3747 97.7366 48.9893 97.328C48.7846 97.1211 48.5378 96.9597 48.2653 96.8544C47.9927 96.7492 47.7008 96.7025 47.4087 96.7174C47.1167 96.704 46.8252 96.7514 46.5529 96.8566C46.2807 96.9618 46.0337 97.1224 45.828 97.328C45.4382 97.7381 45.2425 98.3248 45.241 99.0883V103.861H43.4774V99.0883C43.4774 98.3234 43.2832 97.7463 42.8994 97.328C42.6945 97.1213 42.4477 96.9599 42.1752 96.8546C41.9028 96.7494 41.6108 96.7026 41.3187 96.7174C41.0269 96.7043 40.7354 96.7518 40.4632 96.857C40.191 96.9622 39.944 97.1226 39.7381 97.328C39.3467 97.7381 39.151 98.3248 39.151 99.0883V103.861H37.3672V95.3218H39.151V96.2947C39.4514 95.9382 39.8318 95.6563 40.262 95.4716C40.7134 95.2762 41.2009 95.1757 41.6936 95.1764C42.3363 95.1649 42.9716 95.3141 43.5407 95.6103C44.0769 95.8927 44.5133 96.3304 44.7916 96.8651C45.0604 96.3398 45.4862 95.9095 46.0109 95.6327C46.5573 95.3332 47.1727 95.1791 47.7971 95.1853C48.4297 95.1739 49.0555 95.3168 49.6193 95.6014Z" fill="#0A0500"/>
<path d="M53.7137 93.8651C53.5522 93.7065 53.4421 93.5038 53.3974 93.283C53.3526 93.0621 53.3753 92.8331 53.4625 92.625C53.5497 92.417 53.6975 92.2394 53.887 92.1149C54.0765 91.9904 54.2992 91.9246 54.5266 91.9259C54.6753 91.9234 54.823 91.9511 54.9604 92.0072C55.0979 92.0634 55.2223 92.1469 55.326 92.2525C55.5359 92.4694 55.6531 92.7583 55.6531 93.0588C55.6531 93.3593 55.5359 93.6482 55.326 93.8651C55.2222 93.9705 55.0977 94.0536 54.9602 94.1094C54.8227 94.1651 54.6752 94.1924 54.5266 94.1894C54.3759 94.1932 54.2261 94.1663 54.0863 94.1106C53.9465 94.0548 53.8197 93.9713 53.7137 93.8651ZM55.4027 95.3212V103.861H53.6189V95.3212H55.4027Z" fill="#0A0500"/>
<path d="M57.8387 93.8651C57.6771 93.7063 57.5669 93.5035 57.5223 93.2824C57.4776 93.0613 57.5005 92.8321 57.588 92.624C57.6754 92.4158 57.8236 92.2383 58.0135 92.1139C58.2033 91.9896 58.4263 91.9241 58.6539 91.9259C58.8022 91.9237 58.9494 91.9515 59.0865 92.0076C59.2236 92.0638 59.3476 92.1471 59.451 92.2525C59.6624 92.4686 59.7807 92.7578 59.7807 93.0588C59.7807 93.3598 59.6624 93.6489 59.451 93.8651C59.3475 93.9701 59.2234 94.0531 59.0863 94.1089C58.9492 94.1647 58.8021 94.1921 58.6539 94.1894C58.5028 94.1935 58.3526 94.1668 58.2124 94.111C58.0721 94.0552 57.945 93.9715 57.8387 93.8651ZM59.53 95.3211V103.861H57.7462V95.3211H59.53Z" fill="#0A0500"/>
</svg>
