<svg width="46" height="17" viewBox="0 0 46 17" fill="none" xmlns="http://www.w3.org/2000/svg">
<path d="M4.87348 13.18C3.98548 13.18 3.19948 13 2.51548 12.64C1.84348 12.268 1.30948 11.752 0.913477 11.092C0.529477 10.432 0.337477 9.658 0.337477 8.77C0.337477 7.882 0.529477 7.108 0.913477 6.448C1.30948 5.788 1.84348 5.278 2.51548 4.918C3.19948 4.546 3.98548 4.36 4.87348 4.36C5.77348 4.36 6.55948 4.546 7.23148 4.918C7.90348 5.278 8.43148 5.788 8.81548 6.448C9.21148 7.108 9.40948 7.882 9.40948 8.77C9.40948 9.658 9.21748 10.432 8.83348 11.092C8.44948 11.752 7.91548 12.268 7.23148 12.64C6.54748 13 5.76148 13.18 4.87348 13.18ZM4.87348 11.398C5.36548 11.398 5.79148 11.29 6.15148 11.074C6.51148 10.858 6.79348 10.552 6.99748 10.156C7.20148 9.76 7.30348 9.298 7.30348 8.77C7.30348 8.23 7.20148 7.768 6.99748 7.384C6.79348 6.988 6.51148 6.682 6.15148 6.466C5.79148 6.25 5.36548 6.142 4.87348 6.142C4.39348 6.142 3.96748 6.25 3.59548 6.466C3.23548 6.682 2.95348 6.988 2.74948 7.384C2.54548 7.768 2.44348 8.23 2.44348 8.77C2.44348 9.298 2.54548 9.76 2.74948 10.156C2.95348 10.552 3.23548 10.858 3.59548 11.074C3.95548 11.29 4.38148 11.398 4.87348 11.398ZM15.4907 13.18C14.6027 13.18 13.8167 13 13.1327 12.64C12.4607 12.268 11.9267 11.752 11.5307 11.092C11.1467 10.432 10.9547 9.658 10.9547 8.77C10.9547 7.882 11.1467 7.108 11.5307 6.448C11.9267 5.788 12.4607 5.278 13.1327 4.918C13.8167 4.546 14.6027 4.36 15.4907 4.36C16.3907 4.36 17.1767 4.546 17.8487 4.918C18.5207 5.278 19.0487 5.788 19.4327 6.448C19.8287 7.108 20.0267 7.882 20.0267 8.77C20.0267 9.658 19.8347 10.432 19.4507 11.092C19.0667 11.752 18.5327 12.268 17.8487 12.64C17.1647 13 16.3787 13.18 15.4907 13.18ZM15.4907 11.398C15.9827 11.398 16.4087 11.29 16.7687 11.074C17.1287 10.858 17.4107 10.552 17.6147 10.156C17.8187 9.76 17.9207 9.298 17.9207 8.77C17.9207 8.23 17.8187 7.768 17.6147 7.384C17.4107 6.988 17.1287 6.682 16.7687 6.466C16.4087 6.25 15.9827 6.142 15.4907 6.142C15.0107 6.142 14.5847 6.25 14.2127 6.466C13.8527 6.682 13.5707 6.988 13.3667 7.384C13.1627 7.768 13.0607 8.23 13.0607 8.77C13.0607 9.298 13.1627 9.76 13.3667 10.156C13.5707 10.552 13.8527 10.858 14.2127 11.074C14.5727 11.29 14.9987 11.398 15.4907 11.398ZM25.8019 16.456C25.0819 16.456 24.4099 16.348 23.7859 16.132C23.1619 15.916 22.5619 15.58 21.9859 15.124L22.6699 13.612C23.2219 14.008 23.7499 14.284 24.2539 14.44C24.7579 14.608 25.2379 14.692 25.6939 14.692C26.5339 14.692 27.1939 14.476 27.6739 14.044C28.1539 13.612 28.3939 12.97 28.3939 12.118V11.434C28.1179 11.782 27.7459 12.07 27.2779 12.298C26.8099 12.526 26.2579 12.64 25.6219 12.64C24.9139 12.64 24.2479 12.478 23.6239 12.154C23.0119 11.83 22.5139 11.362 22.1299 10.75C21.7579 10.126 21.5719 9.376 21.5719 8.5C21.5719 7.612 21.7579 6.862 22.1299 6.25C22.5139 5.638 23.0119 5.17 23.6239 4.846C24.2479 4.522 24.9139 4.36 25.6219 4.36C26.3059 4.36 26.8879 4.492 27.3679 4.756C27.8599 5.008 28.2379 5.32 28.5019 5.692V4.54H30.4639V11.776C30.4639 12.784 30.2719 13.636 29.8879 14.332C29.5159 15.028 28.9819 15.556 28.2859 15.916C27.6019 16.276 26.7739 16.456 25.8019 16.456ZM26.0899 10.912C26.5339 10.912 26.9359 10.822 27.2959 10.642C27.6559 10.45 27.9379 10.174 28.1419 9.814C28.3579 9.454 28.4659 9.016 28.4659 8.5C28.4659 7.972 28.3579 7.534 28.1419 7.186C27.9379 6.826 27.6559 6.556 27.2959 6.376C26.9359 6.184 26.5339 6.088 26.0899 6.088C25.6459 6.088 25.2379 6.184 24.8659 6.376C24.5059 6.556 24.2179 6.826 24.0019 7.186C23.7979 7.534 23.6959 7.972 23.6959 8.5C23.6959 9.016 23.7979 9.454 24.0019 9.814C24.2179 10.174 24.5059 10.45 24.8659 10.642C25.2379 10.822 25.6459 10.912 26.0899 10.912ZM32.8851 13V0.975999H34.9371V13H32.8851ZM41.5611 13.18C40.6971 13.18 39.9171 13.012 39.2211 12.676C38.5251 12.34 37.9671 11.848 37.5471 11.2C37.1391 10.54 36.9351 9.73 36.9351 8.77C36.9351 7.87 37.1271 7.09 37.5111 6.43C37.9071 5.77 38.4291 5.26 39.0771 4.9C39.7371 4.54 40.4751 4.36 41.2911 4.36C42.1311 4.36 42.8631 4.522 43.4871 4.846C44.1111 5.158 44.5971 5.59 44.9451 6.142C45.2931 6.694 45.4671 7.324 45.4671 8.032C45.4671 8.236 45.4371 8.464 45.3771 8.716C45.3171 8.968 45.2451 9.172 45.1611 9.328H39.0411C39.1011 9.796 39.2451 10.192 39.4731 10.516C39.7131 10.828 40.0251 11.068 40.4091 11.236C40.7931 11.392 41.2431 11.47 41.7591 11.47C42.2991 11.47 42.7791 11.392 43.1991 11.236C43.6311 11.068 44.0451 10.846 44.4411 10.57L45.1071 12.046C44.6151 12.418 44.0751 12.7 43.4871 12.892C42.8991 13.084 42.2571 13.18 41.5611 13.18ZM39.0411 7.888H43.3251C43.3371 7.852 43.3431 7.822 43.3431 7.798C43.3551 7.762 43.3611 7.732 43.3611 7.708C43.3611 7.36 43.2891 7.066 43.1451 6.826C43.0011 6.574 42.7791 6.376 42.4791 6.232C42.1791 6.088 41.8011 6.016 41.3451 6.016C40.9611 6.016 40.6071 6.094 40.2831 6.25C39.9711 6.394 39.7071 6.61 39.4911 6.898C39.2751 7.174 39.1251 7.504 39.0411 7.888Z" fill="white"/>
</svg>
