<svg width="189" height="214" viewBox="0 0 189 214" fill="none" xmlns="http://www.w3.org/2000/svg">
<rect width="188.978" height="214" rx="5" fill="white"/>
<path d="M37.9921 35.7063C36.4374 35.7063 35.0881 35.3837 33.9441 34.7383C32.8001 34.0783 31.9128 33.1837 31.2821 32.0543C30.6661 30.9103 30.3581 29.605 30.3581 28.1383C30.3581 26.6717 30.6661 25.3737 31.2821 24.2443C31.9128 23.1003 32.8001 22.2057 33.9441 21.5603C35.0881 20.9003 36.4374 20.5703 37.9921 20.5703C39.5468 20.5703 40.8961 20.9003 42.0401 21.5603C43.1841 22.2057 44.0641 23.1003 44.6801 24.2443C45.3108 25.3737 45.6261 26.6717 45.6261 28.1383C45.6261 29.605 45.3108 30.9103 44.6801 32.0543C44.0641 33.1837 43.1841 34.0783 42.0401 34.7383C40.8961 35.3837 39.5468 35.7063 37.9921 35.7063ZM38.0141 33.3743C38.9968 33.3743 39.8548 33.1543 40.5881 32.7143C41.3214 32.2743 41.8861 31.6583 42.2821 30.8663C42.6928 30.0743 42.8981 29.165 42.8981 28.1383C42.8981 27.097 42.6928 26.1877 42.2821 25.4103C41.8861 24.6183 41.3214 24.0023 40.5881 23.5623C39.8548 23.1223 38.9894 22.9023 37.9921 22.9023C37.0094 22.9023 36.1441 23.1223 35.3961 23.5623C34.6628 24.0023 34.0908 24.6183 33.6801 25.4103C33.2841 26.1877 33.0861 27.097 33.0861 28.1383C33.0861 29.165 33.2841 30.0743 33.6801 30.8663C34.0908 31.6583 34.6628 32.2743 35.3961 32.7143C36.1441 33.1543 37.0168 33.3743 38.0141 33.3743ZM48.0741 35.4863V25.1463H50.4941V26.8403C50.7728 26.2097 51.1541 25.7477 51.6381 25.4543C52.1221 25.161 52.6648 25.0143 53.2661 25.0143C53.4715 25.0143 53.6548 25.029 53.8161 25.0583C53.9775 25.073 54.1021 25.1023 54.1901 25.1463V27.5443C53.9848 27.5003 53.7795 27.4637 53.5741 27.4343C53.3688 27.405 53.1708 27.3903 52.9801 27.3903C52.2908 27.3903 51.7188 27.6617 51.2641 28.2043C50.8095 28.7323 50.5821 29.495 50.5821 30.4923V35.4863H48.0741ZM60.364 39.7103C59.484 39.7103 58.6627 39.5783 57.9 39.3143C57.1374 39.0503 56.404 38.6397 55.7 38.0823L56.536 36.2343C57.2107 36.7183 57.856 37.0557 58.472 37.2463C59.088 37.4517 59.6747 37.5543 60.232 37.5543C61.2587 37.5543 62.0654 37.2903 62.652 36.7623C63.2387 36.2343 63.532 35.4497 63.532 34.4083V33.5723C63.1947 33.9977 62.74 34.3497 62.168 34.6283C61.596 34.907 60.9214 35.0463 60.144 35.0463C59.2787 35.0463 58.4647 34.8483 57.702 34.4523C56.954 34.0563 56.3454 33.4843 55.876 32.7363C55.4214 31.9737 55.194 31.057 55.194 29.9863C55.194 28.901 55.4214 27.9843 55.876 27.2363C56.3454 26.4883 56.954 25.9163 57.702 25.5203C58.4647 25.1243 59.2787 24.9263 60.144 24.9263C60.98 24.9263 61.6914 25.0877 62.278 25.4103C62.8794 25.7183 63.3414 26.0997 63.664 26.5543V25.1463H66.062V33.9903C66.062 35.2223 65.8274 36.2637 65.358 37.1143C64.9034 37.965 64.2507 38.6103 63.4 39.0503C62.564 39.4903 61.552 39.7103 60.364 39.7103ZM60.716 32.9343C61.2587 32.9343 61.75 32.8243 62.19 32.6043C62.63 32.3697 62.9747 32.0323 63.224 31.5923C63.488 31.1523 63.62 30.617 63.62 29.9863C63.62 29.341 63.488 28.8057 63.224 28.3803C62.9747 27.9403 62.63 27.6103 62.19 27.3903C61.75 27.1557 61.2587 27.0383 60.716 27.0383C60.1734 27.0383 59.6747 27.1557 59.22 27.3903C58.78 27.6103 58.428 27.9403 58.164 28.3803C57.9147 28.8057 57.79 29.341 57.79 29.9863C57.79 30.617 57.9147 31.1523 58.164 31.5923C58.428 32.0323 58.78 32.3697 59.22 32.6043C59.6747 32.8243 60.1734 32.9343 60.716 32.9343ZM72.2994 35.7063C71.5661 35.7063 70.9061 35.589 70.3194 35.3543C69.7474 35.1197 69.2927 34.775 68.9554 34.3203C68.6327 33.851 68.4714 33.279 68.4714 32.6043C68.4714 31.915 68.6327 31.3577 68.9554 30.9323C69.2927 30.4923 69.7474 30.155 70.3194 29.9203C70.9061 29.671 71.5661 29.5023 72.2994 29.4143L75.7974 28.9743C75.7094 28.2997 75.4307 27.8157 74.9614 27.5223C74.5067 27.2143 73.9567 27.0603 73.3114 27.0603C72.8274 27.0603 72.3214 27.1483 71.7934 27.3243C71.2801 27.5003 70.7081 27.7863 70.0774 28.1823L69.2194 26.3343C69.8501 25.8797 70.5174 25.535 71.2214 25.3003C71.9401 25.051 72.6734 24.9263 73.4214 24.9263C75.0347 24.9263 76.2594 25.2857 77.0954 26.0043C77.9314 26.7083 78.3494 27.7717 78.3494 29.1943V35.4863H75.9294V34.1443C75.5481 34.687 75.0567 35.083 74.4554 35.3323C73.8541 35.5817 73.1354 35.7063 72.2994 35.7063ZM73.0034 33.6823C73.6047 33.6823 74.1107 33.565 74.5214 33.3303C74.9467 33.0957 75.2694 32.7803 75.4894 32.3843C75.7241 31.9883 75.8414 31.5777 75.8414 31.1523V30.7563L73.0914 31.1083C72.4021 31.1963 71.8887 31.343 71.5514 31.5483C71.2141 31.7537 71.0454 32.0617 71.0454 32.4723C71.0454 32.8683 71.2141 33.169 71.5514 33.3743C71.8887 33.5797 72.3727 33.6823 73.0034 33.6823ZM81.3319 35.4863V25.1463H83.7519V26.5543C84.0599 26.0557 84.4926 25.6597 85.0499 25.3663C85.6073 25.073 86.2893 24.9263 87.0959 24.9263C88.2839 24.9263 89.2079 25.2637 89.8679 25.9383C90.5426 26.613 90.8799 27.6543 90.8799 29.0623V35.4863H88.3719V29.4363C88.3719 28.6443 88.2033 28.0577 87.8659 27.6763C87.5433 27.295 87.0446 27.1043 86.3699 27.1043C85.5779 27.1043 84.9546 27.3757 84.4999 27.9183C84.0599 28.4463 83.8399 29.187 83.8399 30.1403V35.4863H81.3319ZM93.8788 35.4863V25.1463H96.3868V35.4863H93.8788ZM95.1328 23.2763C94.6781 23.2763 94.3188 23.1443 94.0548 22.8803C93.7908 22.6017 93.6588 22.257 93.6588 21.8463C93.6588 21.4357 93.7908 21.1057 94.0548 20.8563C94.3188 20.5923 94.6781 20.4603 95.1328 20.4603C95.5728 20.4603 95.9248 20.5923 96.1888 20.8563C96.4675 21.1203 96.6068 21.4577 96.6068 21.8683C96.6068 22.279 96.4675 22.6163 96.1888 22.8803C95.9248 23.1443 95.5728 23.2763 95.1328 23.2763ZM103.141 35.7063C102.363 35.7063 101.615 35.589 100.897 35.3543C100.193 35.1197 99.5035 34.7823 98.8288 34.3423L99.7748 32.4503C100.435 32.8757 101.051 33.1983 101.623 33.4183C102.195 33.6237 102.723 33.7263 103.207 33.7263C103.852 33.7263 104.336 33.631 104.659 33.4403C104.981 33.2497 105.143 32.9563 105.143 32.5603C105.143 32.2523 105.04 32.0177 104.835 31.8563C104.629 31.695 104.263 31.5703 103.735 31.4823L102.173 31.1963C101.175 30.991 100.42 30.661 99.9068 30.2063C99.4081 29.737 99.1588 29.121 99.1588 28.3583C99.1588 27.7277 99.3128 27.1557 99.6208 26.6423C99.9288 26.1143 100.391 25.6963 101.007 25.3883C101.637 25.0803 102.437 24.9263 103.405 24.9263C104.153 24.9263 104.864 25.0363 105.539 25.2563C106.213 25.4617 106.829 25.7477 107.387 26.1143L106.485 27.9403C106.001 27.647 105.502 27.405 104.989 27.2143C104.49 27.009 103.991 26.9063 103.493 26.9063C102.935 26.9063 102.503 27.0017 102.195 27.1923C101.887 27.3683 101.733 27.647 101.733 28.0283C101.733 28.2777 101.828 28.4757 102.019 28.6223C102.209 28.769 102.547 28.8863 103.031 28.9743L104.593 29.2603C105.605 29.4657 106.375 29.803 106.903 30.2723C107.445 30.7417 107.717 31.409 107.717 32.2743C107.717 33.2717 107.328 34.093 106.551 34.7383C105.788 35.3837 104.651 35.7063 103.141 35.7063ZM113.442 35.7063C112.709 35.7063 112.049 35.589 111.462 35.3543C110.89 35.1197 110.435 34.775 110.098 34.3203C109.775 33.851 109.614 33.279 109.614 32.6043C109.614 31.915 109.775 31.3577 110.098 30.9323C110.435 30.4923 110.89 30.155 111.462 29.9203C112.049 29.671 112.709 29.5023 113.442 29.4143L116.94 28.9743C116.852 28.2997 116.573 27.8157 116.104 27.5223C115.649 27.2143 115.099 27.0603 114.454 27.0603C113.97 27.0603 113.464 27.1483 112.936 27.3243C112.423 27.5003 111.851 27.7863 111.22 28.1823L110.362 26.3343C110.993 25.8797 111.66 25.535 112.364 25.3003C113.083 25.051 113.816 24.9263 114.564 24.9263C116.177 24.9263 117.402 25.2857 118.238 26.0043C119.074 26.7083 119.492 27.7717 119.492 29.1943V35.4863H117.072V34.1443C116.691 34.687 116.199 35.083 115.598 35.3323C114.997 35.5817 114.278 35.7063 113.442 35.7063ZM114.146 33.6823C114.747 33.6823 115.253 33.565 115.664 33.3303C116.089 33.0957 116.412 32.7803 116.632 32.3843C116.867 31.9883 116.984 31.5777 116.984 31.1523V30.7563L114.234 31.1083C113.545 31.1963 113.031 31.343 112.694 31.5483C112.357 31.7537 112.188 32.0617 112.188 32.4723C112.188 32.8683 112.357 33.169 112.694 33.3743C113.031 33.5797 113.515 33.6823 114.146 33.6823ZM126.062 35.6183C124.888 35.6183 124.03 35.3543 123.488 34.8263C122.945 34.2983 122.674 33.477 122.674 32.3623V27.2583H120.474V25.1463H122.674V22.1983H125.204V25.1463H127.8V27.2583H125.204V32.1423C125.204 32.597 125.321 32.9417 125.556 33.1763C125.79 33.3963 126.142 33.5063 126.612 33.5063C126.788 33.5063 126.993 33.499 127.228 33.4843C127.477 33.4697 127.668 33.4477 127.8 33.4183V35.4203C127.594 35.479 127.33 35.523 127.008 35.5523C126.7 35.5963 126.384 35.6183 126.062 35.6183ZM130.123 35.4863V25.1463H132.631V35.4863H130.123ZM131.377 23.2763C130.922 23.2763 130.563 23.1443 130.299 22.8803C130.035 22.6017 129.903 22.257 129.903 21.8463C129.903 21.4357 130.035 21.1057 130.299 20.8563C130.563 20.5923 130.922 20.4603 131.377 20.4603C131.817 20.4603 132.169 20.5923 132.433 20.8563C132.712 21.1203 132.851 21.4577 132.851 21.8683C132.851 22.279 132.712 22.6163 132.433 22.8803C132.169 23.1443 131.817 23.2763 131.377 23.2763ZM140.617 35.7063C139.532 35.7063 138.571 35.4863 137.735 35.0463C136.914 34.5917 136.261 33.961 135.777 33.1543C135.308 32.3477 135.073 31.4017 135.073 30.3163C135.073 29.231 135.308 28.285 135.777 27.4783C136.261 26.6717 136.914 26.0483 137.735 25.6083C138.571 25.1537 139.532 24.9263 140.617 24.9263C141.717 24.9263 142.678 25.1537 143.499 25.6083C144.32 26.0483 144.966 26.6717 145.435 27.4783C145.919 28.285 146.161 29.231 146.161 30.3163C146.161 31.4017 145.926 32.3477 145.457 33.1543C144.988 33.961 144.335 34.5917 143.499 35.0463C142.663 35.4863 141.702 35.7063 140.617 35.7063ZM140.617 33.5283C141.218 33.5283 141.739 33.3963 142.179 33.1323C142.619 32.8683 142.964 32.4943 143.213 32.0103C143.462 31.5263 143.587 30.9617 143.587 30.3163C143.587 29.6563 143.462 29.0917 143.213 28.6223C142.964 28.1383 142.619 27.7643 142.179 27.5003C141.739 27.2363 141.218 27.1043 140.617 27.1043C140.03 27.1043 139.51 27.2363 139.055 27.5003C138.615 27.7643 138.27 28.1383 138.021 28.6223C137.772 29.0917 137.647 29.6563 137.647 30.3163C137.647 30.9617 137.772 31.5263 138.021 32.0103C138.27 32.4943 138.615 32.8683 139.055 33.1323C139.495 33.3963 140.016 33.5283 140.617 33.5283ZM148.6 35.4863V25.1463H151.02V26.5543C151.328 26.0557 151.76 25.6597 152.318 25.3663C152.875 25.073 153.557 24.9263 154.364 24.9263C155.552 24.9263 156.476 25.2637 157.136 25.9383C157.81 26.613 158.148 27.6543 158.148 29.0623V35.4863H155.64V29.4363C155.64 28.6443 155.471 28.0577 155.134 27.6763C154.811 27.295 154.312 27.1043 153.638 27.1043C152.846 27.1043 152.222 27.3757 151.768 27.9183C151.328 28.4463 151.108 29.187 151.108 30.1403V35.4863H148.6Z" fill="#283380"/>
<g clip-path="url(#clip0_6010_45874)">
<path d="M155 187.535C155 187.535 127.692 190 94.002 190C60.3123 190 33 187.535 33 187.535C33 187.535 60.3083 183 93.998 183C127.688 183 155 187.535 155 187.535Z" fill="#CED1D9"/>
<path d="M54.4087 130.836H47.7734V152.421H54.4087V130.836Z" fill="#4D4D4D"/>
<path d="M52.4548 154.809H50.4297V177.858H52.4548V154.809Z" fill="#B6B6B6"/>
<path d="M52.4548 171.537L50.4297 169.568V154.809H52.4548V171.537Z" fill="#9D9D9D"/>
<path d="M53.073 163.158H49.7779C48.8678 163.158 48.1328 162.423 48.1328 161.514V154.809H54.718V161.514C54.718 162.423 53.983 163.158 53.073 163.158Z" fill="#4D4D4D"/>
<path d="M49.9159 179.916L49.9659 179.057L41.3906 180.91V181.23L49.9159 179.916Z" fill="#666666"/>
<path d="M44.3048 181.889C44.3048 182.854 43.5448 183.638 42.6148 183.638C41.6797 183.638 40.9247 182.854 40.9297 181.884C40.9297 180.92 41.6897 180.136 42.6198 180.141C43.5498 180.141 44.3048 180.925 44.3048 181.889Z" fill="#333333"/>
<path d="M52.4016 179.896L52.3516 179.031L60.9268 180.915L60.9218 181.235L52.4016 179.896Z" fill="#666666"/>
<path d="M57.875 181.884C57.875 182.848 58.63 183.632 59.5601 183.637C60.4951 183.637 61.2501 182.858 61.2501 181.889C61.2501 180.924 60.4951 180.14 59.5651 180.135C58.635 180.135 57.875 180.919 57.875 181.884Z" fill="#333333"/>
<path d="M55.0174 180.73H47.8672L49.2772 176.373H53.6074L55.0174 180.73Z" fill="#858585"/>
<path d="M50.5234 178.742H52.3985L51.9985 181.071H50.9134L50.5234 178.742Z" fill="#666666"/>
<path d="M53.1407 182.235C53.1407 183.199 52.3807 183.984 51.4507 183.984C50.5156 183.984 49.7656 183.199 49.7656 182.23C49.7656 181.266 50.5256 180.481 51.4557 180.486C52.3857 180.486 53.1407 181.271 53.1407 182.235Z" fill="#333333"/>
<path d="M55.7122 157.361H47.1719V158.311H55.7122V157.361Z" fill="#858585"/>
<path d="M36.9219 154.393H65.2578C65.1028 152.76 63.0527 152.25 60.5776 152.25H41.602C39.1269 152.25 37.0769 152.755 36.9219 154.393Z" fill="#BC842C"/>
<path d="M38.4357 157.631H63.7515C64.7415 157.631 65.5466 156.802 65.5466 155.773V154.548C65.5466 153.754 64.9015 153.109 64.1065 153.109H38.0807C37.2856 153.109 36.6406 153.754 36.6406 154.548V155.773C36.6406 156.802 37.4457 157.631 38.4357 157.631Z" fill="#FCC062"/>
<path d="M57.205 141.413H46.3347C41.5345 141.413 37.6094 137.491 37.6094 132.694V124.69C37.6094 119.893 41.5345 115.971 46.3347 115.971H57.205C62.0052 115.971 65.9303 119.893 65.9303 124.69V132.694C65.9303 137.491 62.0002 141.413 57.205 141.413Z" fill="#FCC062"/>
<path d="M55.8484 141.413H44.9831C40.1829 141.413 36.2578 137.491 36.2578 132.694V124.69C36.2578 119.893 40.1829 115.971 44.9831 115.971H55.8484C60.6486 115.971 64.5737 119.893 64.5737 124.69V132.694C64.5737 137.491 60.6486 141.413 55.8484 141.413Z" fill="#E39F35"/>
<path d="M59.5356 122.512H40.68C40.51 122.512 40.375 122.377 40.375 122.207C40.375 122.037 40.51 121.902 40.68 121.902H59.5356C59.7056 121.902 59.8406 122.037 59.8406 122.207C59.8406 122.372 59.7056 122.512 59.5356 122.512Z" fill="#BC842C"/>
<path d="M59.5356 127.608H40.68C40.51 127.608 40.375 127.473 40.375 127.303C40.375 127.133 40.51 126.998 40.68 126.998H59.5356C59.7056 126.998 59.8406 127.133 59.8406 127.303C59.8406 127.473 59.7056 127.608 59.5356 127.608Z" fill="#BC842C"/>
<path d="M59.5356 132.709H40.68C40.51 132.709 40.375 132.574 40.375 132.404C40.375 132.235 40.51 132.1 40.68 132.1H59.5356C59.7056 132.1 59.8406 132.235 59.8406 132.404C59.8406 132.569 59.7056 132.709 59.5356 132.709Z" fill="#BC842C"/>
<path d="M121.346 130.836H114.711V152.421H121.346V130.836Z" fill="#4D4D4D"/>
<path d="M119.384 154.809H117.359V177.858H119.384V154.809Z" fill="#B6B6B6"/>
<path d="M119.389 171.537L117.359 169.568V154.809H119.389V171.537Z" fill="#9D9D9D"/>
<path d="M120.01 163.158H116.715C115.805 163.158 115.07 162.423 115.07 161.514V154.809H121.656V161.514C121.656 162.423 120.921 163.158 120.01 163.158Z" fill="#4D4D4D"/>
<path d="M116.851 179.916L116.901 179.057L108.32 180.91V181.23L116.851 179.916Z" fill="#666666"/>
<path d="M111.242 181.889C111.242 182.854 110.482 183.638 109.552 183.638C108.617 183.638 107.862 182.854 107.867 181.884C107.867 180.92 108.627 180.136 109.557 180.141C110.487 180.141 111.242 180.925 111.242 181.889Z" fill="#333333"/>
<path d="M119.334 179.896L119.289 179.031L127.859 180.915V181.235L119.334 179.896Z" fill="#666666"/>
<path d="M124.812 181.884C124.812 182.848 125.568 183.632 126.498 183.637C127.433 183.637 128.188 182.858 128.188 181.889C128.188 180.924 127.433 180.14 126.503 180.135C125.568 180.135 124.812 180.919 124.812 181.884Z" fill="#333333"/>
<path d="M121.96 180.73H114.805L116.22 176.373H120.545L121.96 180.73Z" fill="#858585"/>
<path d="M117.453 178.742H119.333L118.928 181.071H117.848L117.453 178.742Z" fill="#666666"/>
<path d="M120.078 182.235C120.078 183.199 119.318 183.984 118.388 183.984C117.453 183.984 116.703 183.199 116.703 182.23C116.703 181.266 117.463 180.481 118.393 180.486C119.323 180.486 120.078 181.271 120.078 182.235Z" fill="#333333"/>
<path d="M122.65 157.361H114.109V158.311H122.65V157.361Z" fill="#858585"/>
<path d="M103.859 154.393H132.195C132.04 152.76 129.99 152.25 127.515 152.25H108.535C106.064 152.25 104.014 152.755 103.859 154.393Z" fill="#BC842C"/>
<path d="M105.368 157.631H130.684C131.674 157.631 132.479 156.802 132.479 155.773V154.548C132.479 153.754 131.834 153.109 131.039 153.109H105.018C104.223 153.109 103.578 153.754 103.578 154.548V155.773C103.578 156.802 104.378 157.631 105.368 157.631Z" fill="#FCC062"/>
<path d="M124.135 141.413H113.264C108.464 141.413 104.539 137.491 104.539 132.694V124.69C104.539 119.893 108.464 115.971 113.264 115.971H124.135C128.935 115.971 132.86 119.893 132.86 124.69V132.694C132.86 137.491 128.935 141.413 124.135 141.413Z" fill="#FCC062"/>
<path d="M122.783 141.413H111.913C107.113 141.413 103.188 137.491 103.188 132.694V124.69C103.188 119.893 107.113 115.971 111.913 115.971H122.783C127.583 115.971 131.508 119.893 131.508 124.69V132.694C131.508 137.491 127.578 141.413 122.783 141.413Z" fill="#E39F35"/>
<path d="M126.465 122.512H107.61C107.44 122.512 107.305 122.377 107.305 122.207C107.305 122.037 107.44 121.902 107.61 121.902H126.465C126.635 121.902 126.77 122.037 126.77 122.207C126.77 122.372 126.63 122.512 126.465 122.512Z" fill="#BC842C"/>
<path d="M126.465 127.608H107.61C107.44 127.608 107.305 127.473 107.305 127.303C107.305 127.133 107.44 126.998 107.61 126.998H126.465C126.635 126.998 126.77 127.133 126.77 127.303C126.77 127.473 126.63 127.608 126.465 127.608Z" fill="#BC842C"/>
<path d="M126.465 132.709H107.61C107.44 132.709 107.305 132.574 107.305 132.404C107.305 132.235 107.44 132.1 107.61 132.1H126.465C126.635 132.1 126.77 132.235 126.77 132.404C126.77 132.569 126.63 132.709 126.465 132.709Z" fill="#BC842C"/>
<path d="M124.287 153.821C124.287 153.821 127.777 153.741 127.777 149.763C127.777 145.791 124.287 140.805 124.287 140.805H107.452C107.452 140.805 104.377 145.721 103.552 147.795C102.732 149.873 101.872 153.816 107.142 153.816C112.412 153.816 124.287 153.821 124.287 153.821Z" fill="#1F1C2C"/>
<path d="M99.329 177.988C99.329 177.988 99.9141 176.374 100.449 175.24H103.399C104.439 177.184 104.354 181.196 104.439 183.385L93.8189 183.305C92.7588 182.27 99.329 177.988 99.329 177.988Z" fill="#B3B3B3"/>
<path d="M103.43 181.067C103.645 180.847 103.895 178.763 104.205 178.758C104.53 178.758 104.62 179.328 104.62 179.328C104.73 179.633 104.62 185.614 104.62 185.614C100.79 185.614 96.9545 185.614 93.1294 185.614C91.1893 185.614 90.7943 184.434 90.5893 183.895C90.4543 183.54 90.4443 183.145 90.5393 182.785C93.5694 181.317 96.4745 179.603 99.2296 177.664C99.8596 177.829 100.245 178.479 100.4 179.108C100.555 179.738 100.55 180.407 100.74 181.027C100.81 181.247 103.28 181.222 103.43 181.067Z" fill="#1A1A1A"/>
<path d="M120.945 147.22C114.85 146.85 109.044 145.891 102.939 145.831C101.099 145.811 99.6241 146.141 98.7841 146.89C97.9441 147.64 97.6591 152.002 100.439 154.125H121.365L120.945 147.22Z" fill="#1F1C2C"/>
<path d="M120.682 185.148C121.162 184.079 121.592 183.08 121.967 181.946L121.792 175.45C121.787 174.975 121.342 174.596 120.877 174.606L117.992 174.641C117.582 174.646 116.357 180.202 116.357 180.202L113.877 183.874C113.642 184.184 113.422 184.774 113.297 185.148H120.682Z" fill="#B3B3B3"/>
<path d="M113.572 181.635L114.947 180.471L115.277 179.482C116.892 179.102 120.167 179.767 120.167 179.767L120.472 181.171C120.572 181.156 121.367 181.061 121.457 181.016C122.122 180.691 121.782 178.043 121.917 178.043C121.947 178.043 122.372 178.113 122.462 178.757C122.757 180.841 122.737 185.613 122.737 185.613H112.757C112.752 185.573 112.747 185.533 112.747 185.488C112.687 184.688 113.237 182.075 113.572 181.635Z" fill="#1A1A1A"/>
<path d="M118.943 103.381H111.508V112.22H118.943V103.381Z" fill="#B9B9B9"/>
<path d="M118.943 103.381V106.099C117.093 107.593 114.593 108.602 111.508 108.817V103.381H118.943Z" fill="#9A9A9A"/>
<path d="M127.897 111.959C128.812 112.429 130.427 113.453 130.637 114.123C130.847 114.792 136.693 130.496 137.078 131.646C137.848 133.949 131.092 135.998 130.512 134.504C129.937 133.015 123.617 121.353 123.617 121.353L124.987 111.854C124.987 111.85 126.932 111.46 127.897 111.959Z" fill="#3C4448"/>
<path d="M110.022 144.352C109.802 144.352 109.652 144.352 109.597 144.352C108.492 144.337 105.192 143.383 104.717 142.638C105.942 136.298 104.137 122.192 104.137 122.192C103.692 121.358 102.647 115.137 103.027 112.574L111.182 109.146L114.957 110.276H115.717L119.492 109.146L127.648 112.574C128.028 115.142 127.513 121.363 127.068 122.192C127.068 122.192 124.183 136.128 125.418 142.408L125.423 142.438C125.178 142.808 123.343 143.757 122.448 143.897C119.583 144.347 110.407 144.352 110.022 144.352Z" fill="#CFD7E9"/>
<path d="M116.769 113.757L118.194 112.378L117.349 110.065L115.334 109.885L113.319 110.065L112.474 112.378L113.899 113.757L111.664 135.457L115.334 139.744L119.004 135.457L116.769 113.757Z" fill="#B4B6B9"/>
<path d="M119.256 107.277L115.336 109.886L116.771 110.18L117.921 116.131L121.746 110.11L119.256 107.277Z" fill="#E7EBF4"/>
<path d="M111.412 107.277L115.332 109.886L113.897 110.18L112.747 116.131L108.922 110.11L111.412 107.277Z" fill="#E7EBF4"/>
<path d="M105.113 111.02C104.118 111.285 102.322 111.94 101.972 112.549C101.622 113.159 96.5673 123.357 94.5572 126.909C92.7672 130.392 99.3474 131.176 100.187 130.362C101.027 129.547 106.448 121.988 106.448 121.988L107.978 111.54C107.978 111.54 106.163 110.741 105.113 111.02Z" fill="#3C4448"/>
<path d="M128.617 112.433L121.127 109.41L118.147 127.148L116.602 145.45C122.272 146.244 127.632 148.243 128.037 147.838C128.702 147.174 126.272 140.369 126.152 139.419C124.852 129.381 127.417 122.376 127.417 122.376C127.417 122.376 129.057 114.866 128.617 112.433Z" fill="#3C4448"/>
<path d="M112.003 126.168C111.663 121.507 109.533 109.41 109.533 109.41L102.248 112.278C101.808 114.711 103.248 122.371 103.248 122.371C103.248 122.371 104.573 130.306 104.273 138.99C104.203 139.854 100.008 145.225 100.428 145.825C100.848 146.424 107.773 146.414 110.978 146.08C110.983 146.085 112.348 130.835 112.003 126.168Z" fill="#3C4448"/>
<path d="M102.258 132.199C102.258 132.199 103.093 131.66 103.573 131.645C103.908 131.635 104.573 132.204 104.573 132.204L104.028 132.399L102.258 132.199Z" fill="#B9B9B9"/>
<path d="M104.129 132.248L102.149 135.551C102.149 135.551 100.574 136.216 99.9043 135.661C99.2343 135.106 98.9543 134.202 99.1143 133.782C99.2743 133.363 101.129 132.468 102.094 132.138C103.059 131.804 104.129 132.248 104.129 132.248Z" fill="#B9B9B9"/>
<path d="M103.939 132.204C103.939 132.204 105.029 131.999 105.744 132.339C106.459 132.683 108.425 135.017 108.665 135.277C108.935 135.571 108.14 135.841 107.83 135.691C107.21 135.397 105.524 133.288 105.129 133.163C104.734 133.038 103.234 133.263 103.234 133.263L103.939 132.204Z" fill="#B9B9B9"/>
<path d="M103.116 132.999C103.116 132.999 104.206 132.794 104.921 133.134C105.636 133.478 107.321 135.552 107.666 135.922C108.011 136.291 107.091 136.486 106.756 136.296C106.156 135.962 104.576 134.248 104.181 134.123C103.786 133.998 102.406 134.058 102.406 134.058L103.116 132.999Z" fill="#B9B9B9"/>
<path d="M102.012 134.152C102.012 134.152 103.037 133.777 103.722 133.957C104.402 134.137 106.037 135.696 106.372 135.966C106.707 136.235 105.842 136.57 105.522 136.46C104.947 136.27 103.422 135.016 103.042 134.971C102.662 134.931 101.367 135.221 101.367 135.221L102.012 134.152Z" fill="#B9B9B9"/>
<path d="M101.005 134.768C101.005 134.768 101.965 134.313 102.515 134.598C102.925 134.808 104.47 135.887 104.765 136.127C105.06 136.366 104.79 136.791 104.505 136.696C104 136.526 102.53 135.617 102.195 135.577C101.86 135.537 100.43 135.717 100.43 135.717L101.005 134.768Z" fill="#B9B9B9"/>
<path d="M103.417 131.36L98.1471 135.177C98.1471 135.177 95.017 131.36 94.3819 129.646C93.6469 127.658 94.707 125.874 96.722 125.499C98.2621 125.214 99.3671 125.839 100.107 126.743C102.167 129.282 103.417 131.36 103.417 131.36Z" fill="#3C4448"/>
<path d="M117.253 131.936C117.253 131.936 116.418 131.396 115.938 131.381C115.603 131.371 114.938 131.941 114.938 131.941L115.483 132.135L117.253 131.936Z" fill="#B9B9B9"/>
<path d="M115.383 131.991L117.363 135.293C117.363 135.293 118.938 135.958 119.608 135.403C120.278 134.849 120.558 133.944 120.398 133.525C120.238 133.105 118.383 132.211 117.418 131.881C116.453 131.541 115.383 131.991 115.383 131.991Z" fill="#B9B9B9"/>
<path d="M115.569 131.94C115.569 131.94 114.479 131.735 113.764 132.075C113.049 132.42 111.084 134.753 110.844 135.013C110.574 135.308 111.369 135.578 111.679 135.428C112.299 135.133 113.984 133.024 114.379 132.899C114.774 132.775 116.274 132.999 116.274 132.999L115.569 131.94Z" fill="#B9B9B9"/>
<path d="M116.392 132.735C116.392 132.735 115.302 132.53 114.587 132.87C113.872 133.215 112.187 135.288 111.842 135.658C111.497 136.028 112.417 136.223 112.752 136.033C113.352 135.698 114.932 133.984 115.327 133.859C115.722 133.734 117.102 133.794 117.102 133.794L116.392 132.735Z" fill="#B9B9B9"/>
<path d="M117.498 133.894C117.498 133.894 116.473 133.519 115.788 133.699C115.108 133.879 113.473 135.438 113.138 135.708C112.803 135.978 113.668 136.312 113.988 136.202C114.563 136.013 116.088 134.759 116.468 134.714C116.848 134.674 118.143 134.963 118.143 134.963L117.498 133.894Z" fill="#B9B9B9"/>
<path d="M118.505 134.504C118.505 134.504 117.545 134.049 116.995 134.334C116.585 134.544 115.04 135.623 114.745 135.863C114.45 136.103 114.72 136.527 115.005 136.433C115.51 136.263 116.98 135.353 117.315 135.313C117.65 135.273 119.08 135.453 119.08 135.453L118.505 134.504Z" fill="#B9B9B9"/>
<path d="M118.266 131.146L118.886 136.512C118.886 136.512 133.596 136.237 135.286 135.543C137.251 134.738 137.846 132.755 136.761 131.016C135.931 129.692 134.721 129.297 133.556 129.367C130.291 129.567 118.266 131.146 118.266 131.146Z" fill="#3C4448"/>
<path d="M97.891 176.885C97.891 176.885 96.4409 156.679 96.8559 149.998C97.2909 142.943 106.511 144.502 106.511 149.773C106.511 155.27 106.511 176.885 106.511 176.885H97.891Z" fill="#3C4448"/>
<path d="M115.152 176.979L114.797 150.763C116.002 141.654 124.087 143.223 124.577 149.438C125.072 155.659 123.407 176.979 123.407 176.979H115.152Z" fill="#3C4448"/>
<path d="M117.078 104.439C117.408 104.589 117.793 104.574 118.138 104.469C118.483 104.364 118.788 104.169 119.078 103.965C119.848 103.425 120.593 102.715 120.688 101.801C120.718 101.496 120.668 101.166 120.458 100.927C120.213 100.642 119.788 100.547 119.418 100.627C119.048 100.707 118.728 100.937 118.478 101.211L117.078 104.439Z" fill="#B9B9B9"/>
<path d="M108.729 103.134C108.369 103.179 108.004 103.045 107.714 102.84C107.419 102.635 107.189 102.355 106.974 102.075C106.409 101.331 105.914 100.421 106.104 99.522C106.169 99.2222 106.319 98.9224 106.589 98.7575C106.909 98.5627 107.344 98.6026 107.674 98.7875C108.004 98.9724 108.234 99.2921 108.389 99.6269L108.729 103.134Z" fill="#B9B9B9"/>
<path d="M118.374 105.088C119.084 102.29 120.084 100.752 120.794 99.1826C121.314 98.0034 121.974 95.9548 120.834 93.8813C119.724 91.7378 116.344 90.0889 112.954 90.5037C109.539 90.9134 107.429 92.5422 107.484 94.7757C107.479 96.1097 107.384 97.9385 107.394 99.3175C107.399 100.462 106.884 101.531 107.129 102.68C107.604 104.674 110.069 108.421 112.409 108.786C114.324 109.091 117.999 106.298 118.374 105.088Z" fill="#B9B9B9"/>
<path d="M113.025 102.086C112.995 102.141 112.965 102.186 112.93 102.231C112.895 102.276 112.86 102.326 112.805 102.346C112.755 102.366 112.685 102.336 112.64 102.246C112.62 102.201 112.605 102.146 112.61 102.081C112.615 102.016 112.63 101.951 112.665 101.886C112.7 101.821 112.745 101.771 112.795 101.736C112.845 101.701 112.9 101.681 112.95 101.671C113.05 101.661 113.11 101.701 113.125 101.756C113.14 101.811 113.12 101.871 113.1 101.926C113.075 101.981 113.05 102.031 113.025 102.086Z" fill="#F2F2F2"/>
<path d="M112.401 102.186C112.396 102.146 112.396 102.111 112.396 102.076C112.396 102.046 112.396 102.016 112.396 101.986C112.396 101.956 112.401 101.926 112.406 101.891C112.411 101.856 112.421 101.816 112.436 101.776C112.461 101.696 112.486 101.612 112.491 101.542C112.496 101.472 112.486 101.407 112.451 101.367C112.416 101.327 112.376 101.317 112.326 101.342C112.276 101.367 112.221 101.417 112.156 101.497C112.096 101.577 112.026 101.687 111.991 101.826C111.971 101.896 111.966 101.971 111.971 102.046C111.976 102.121 111.991 102.191 112.011 102.261C112.031 102.331 112.056 102.391 112.086 102.451C112.116 102.511 112.146 102.561 112.181 102.606C112.246 102.701 112.306 102.776 112.361 102.831C112.466 102.946 112.536 102.991 112.586 102.931C112.631 102.876 112.641 102.801 112.591 102.681C112.566 102.621 112.531 102.551 112.491 102.466C112.471 102.426 112.451 102.381 112.436 102.331C112.416 102.291 112.401 102.236 112.401 102.186Z" fill="#9A9A9A"/>
<path d="M114.885 99.1538C115.215 99.1288 115.545 99.1688 115.86 99.2587C116.175 99.3487 116.475 99.4986 116.745 99.6934C117.01 99.8933 116.835 100.163 116.56 100.053C116.285 99.9383 116.005 99.8383 115.725 99.7534C115.445 99.6684 115.16 99.6035 114.865 99.5535C114.565 99.5036 114.56 99.1788 114.885 99.1538Z" fill="#1A1A1A"/>
<path d="M110.98 98.5186C110.675 98.4037 110.345 98.3438 110.015 98.3438C109.685 98.3438 109.355 98.3987 109.045 98.5136C108.735 98.6285 108.825 98.9383 109.12 98.9084C109.42 98.8734 109.71 98.8584 110.005 98.8584C110.3 98.8584 110.59 98.8784 110.89 98.9134C111.185 98.9433 111.285 98.6385 110.98 98.5186Z" fill="#1A1A1A"/>
<path d="M110.299 100.893L110.414 100.138C110.469 99.7733 110.214 99.4335 109.854 99.3786C109.489 99.3236 109.149 99.5784 109.094 99.9382L108.979 100.693C108.919 101.052 110.244 101.252 110.299 100.893Z" fill="#1A1A1A"/>
<path d="M114.838 101.596L114.958 100.842C115.018 100.477 115.363 100.232 115.723 100.287C116.088 100.347 116.333 100.692 116.278 101.051L116.158 101.806C116.098 102.176 114.778 101.961 114.838 101.596Z" fill="#1A1A1A"/>
<path d="M111.213 103.7C112.003 104.119 112.923 104.124 113.738 103.735C113.973 103.625 114.193 103.48 114.408 103.31C114.498 103.235 114.428 103.05 114.338 103.125C113.623 103.71 112.758 103.929 111.943 103.75C111.713 103.7 111.488 103.615 111.273 103.5C111.173 103.445 111.118 103.645 111.213 103.7Z" fill="#1A1A1A"/>
<path d="M122.068 99.2578C122.193 99.0929 122.283 98.8981 122.333 98.6732C122.353 98.5933 122.363 98.5133 122.368 98.4334C122.503 98.3135 122.593 98.1486 122.598 97.9587C122.603 97.7539 122.523 97.569 122.393 97.4341C122.533 97.2342 122.628 96.9994 122.648 96.7396C122.673 96.4298 122.598 96.15 122.453 95.9052C122.513 95.8102 122.548 95.7053 122.548 95.5854C122.553 95.2856 122.383 95.0208 122.123 94.9158C122.223 94.5611 122.203 94.1914 121.963 93.8416C121.918 93.7766 121.863 93.7117 121.808 93.6567C121.963 93.4968 122.048 93.257 121.993 93.0372C121.908 92.6824 121.593 92.4526 121.238 92.5075C121.218 92.4276 121.188 92.3526 121.158 92.2777C121.268 92.2077 121.378 92.1378 121.483 92.0728C121.768 91.893 121.953 91.5232 121.763 91.1984C121.603 90.9136 121.193 90.7238 120.888 90.9186C120.713 91.0286 120.533 91.1435 120.358 91.2534C120.353 91.2284 120.353 91.2034 120.343 91.1735C120.338 91.1435 120.328 91.1135 120.313 91.0885C120.348 91.0485 120.383 91.0086 120.423 90.9736C120.663 90.7338 120.718 90.3091 120.463 90.0542C120.223 89.8144 119.803 89.7594 119.543 90.0143C119.528 90.0293 119.518 90.0393 119.503 90.0542C119.503 90.0293 119.503 89.9993 119.498 89.9743C119.488 89.8694 119.443 89.7744 119.373 89.6945C119.403 89.5046 119.358 89.2998 119.218 89.1599C118.973 88.915 118.563 88.8701 118.298 89.1199C118.268 89.1449 118.243 89.1749 118.213 89.1998C118.193 89.0699 118.138 88.945 118.053 88.8551C117.803 88.5803 117.438 88.6053 117.158 88.8001C117.158 88.5253 116.978 88.2555 116.708 88.1706C116.543 88.1156 116.373 88.1406 116.223 88.2105C116.248 87.9257 116.033 87.6309 115.768 87.546C115.413 87.4311 115.083 87.6409 114.948 87.9657C114.913 88.0556 114.873 88.1406 114.838 88.2305C114.833 88.2055 114.833 88.1855 114.828 88.1606C114.783 87.8258 114.383 87.571 114.058 87.6559C113.763 87.7309 113.583 87.9557 113.553 88.2305C113.538 88.1805 113.523 88.1306 113.513 88.0806C113.418 87.7409 113.103 87.501 112.743 87.576C112.643 87.596 112.543 87.6459 112.463 87.7159C112.288 87.4561 111.908 87.3361 111.628 87.496C111.318 87.6709 111.183 88.0456 111.348 88.3704C111.363 88.4054 111.383 88.4404 111.398 88.4753C111.328 88.5053 111.268 88.5453 111.213 88.6003C111.203 88.6102 111.193 88.6202 111.188 88.6302C111.213 88.3304 111.068 88.0157 110.748 87.9257C110.428 87.8358 110.013 87.9907 109.928 88.3454C109.908 88.4254 109.898 88.5053 109.888 88.5853C109.783 88.4803 109.643 88.4104 109.478 88.4054C109.138 88.4004 108.798 88.6552 108.793 89.02C108.788 89.1749 108.803 89.3198 108.823 89.4647C108.743 89.5396 108.673 89.6345 108.638 89.7544C108.608 89.8544 108.603 89.9643 108.618 90.0692C108.433 90.0043 108.253 89.9393 108.068 89.8794C107.513 89.6845 107.143 90.2291 107.223 90.6888C106.893 90.5989 106.493 90.7837 106.398 91.1385C106.378 91.2084 106.373 91.2834 106.373 91.3583C106.188 91.3833 106.013 91.4782 105.898 91.6281C105.663 91.4033 105.248 91.3783 105.013 91.6181C104.763 91.868 104.728 92.2677 104.973 92.5375C105.053 92.6274 105.138 92.7074 105.223 92.7823C104.988 92.7723 104.738 92.8873 104.618 93.0971C104.513 93.282 104.493 93.4868 104.548 93.6667C104.388 93.7567 104.253 93.9066 104.198 94.0714C104.078 94.4562 104.293 94.7809 104.628 94.9308C104.653 94.9408 104.683 94.9558 104.708 94.9708C104.503 95.4005 104.473 95.8702 104.613 96.2899C104.423 96.3798 104.283 96.5647 104.268 96.8445C104.228 97.8538 105.038 98.7981 106.048 98.7881C105.933 99.0979 105.983 99.4477 106.283 99.6426C106.558 99.8224 107.048 99.7675 107.208 99.4327C107.403 99.023 107.538 98.6033 107.593 98.1636C108.023 97.9837 108.368 97.6489 108.478 97.1193C108.563 96.7096 108.458 96.3648 108.258 96.07C108.468 95.7902 108.578 95.4255 108.558 95.0557C108.853 94.8959 109.088 94.641 109.183 94.2713C109.223 94.1314 109.233 93.9815 109.218 93.8416C109.528 93.6917 109.793 93.4469 109.973 93.1471C110.638 93.4069 111.413 93.207 111.823 92.6224C112.323 92.8273 112.853 92.8623 113.298 92.6474C113.793 93.0571 114.553 93.0521 115.243 92.8823C115.568 93.277 116.073 93.5218 116.533 93.4918C116.648 93.9415 117.028 94.2763 117.493 94.4861C117.398 95.2206 117.838 95.9052 118.518 96.2449C118.468 96.6047 118.548 96.9744 118.763 97.2892C118.398 97.4541 118.123 97.7838 118.043 98.2285C117.983 98.5683 118.058 98.8881 118.223 99.1629C117.963 99.5826 117.933 100.127 118.223 100.572C118.148 101.176 118.593 101.701 119.098 101.836C119.233 102.071 119.533 102.221 119.798 102.151C120.128 102.066 120.333 101.781 120.308 101.446C120.998 101.331 121.678 100.997 121.858 100.247C121.893 100.222 121.928 100.197 121.958 100.172C122.078 100.047 122.173 99.8824 122.173 99.7075C122.188 99.5476 122.158 99.3777 122.068 99.2578Z" fill="#2C1E1C"/>
<path d="M72.6497 76.7472L70.6328 85.9062L78.3384 87.6006L80.3553 78.4416L72.6497 76.7472Z" fill="#F0B297"/>
<path d="M80.3593 78.4388L79.7393 81.2569C77.4843 82.3861 74.6642 82.8607 71.4141 82.3811L72.6541 76.75L80.3593 78.4388Z" fill="#D1785E"/>
<path d="M88.9212 90.5248C89.6162 91.3643 90.7713 93.0331 90.6963 93.7776C90.6213 94.522 89.1412 114.348 89.0412 115.632C88.8362 118.206 81.436 113.894 81.496 112.2C81.551 110.506 80.8359 97.9247 80.8359 97.9247L86.1211 89.2207C86.1211 89.2158 88.1862 89.6405 88.9212 90.5248Z" fill="#29253B"/>
<path d="M78.2226 113.34C77.9326 126.561 78.5027 149.405 77.9676 152.842C77.4276 156.32 70.2374 150.574 70.0024 147.066C69.9174 145.807 70.2524 144.548 70.2524 143.289C70.2524 142.175 69.7674 141.1 69.7474 139.981C69.5874 130.203 67.6573 128.829 66.2573 122.798L63.9922 113.34H78.2226Z" fill="#232033"/>
<path d="M56.9687 186.337C58.4987 185.608 59.8488 184.833 60.2238 184.049L60.3938 177.099C60.4538 176.584 60.5638 175.949 60.0588 175.879L57.7637 175.565C57.3137 175.505 56.8937 175.785 56.7737 176.229C56.5186 177.189 55.6186 180.356 55.6186 180.356C54.1236 181.83 52.6285 183.299 51.1335 184.773C50.6785 185.223 50.1934 185.683 50.1484 186.332C50.1484 186.357 56.9687 186.337 56.9687 186.337Z" fill="#B3B3B3"/>
<path d="M60.3488 178.938C60.2038 178.918 60.7238 182.65 59.0187 182.93C58.9087 182.945 58.7987 182.955 58.6887 182.96L58.5537 181.381C58.5537 181.381 56.1336 180.267 54.3186 180.407L53.8986 181.266L48.7484 184.099C48.3234 184.519 47.6784 185.153 47.6184 186.033C47.6084 186.158 47.6634 186.297 47.7634 186.447H60.7938C60.7938 186.442 60.4938 178.958 60.3488 178.938Z" fill="#1A1A1A"/>
<path d="M82.9597 186.314C82.9597 186.314 82.6446 185.215 82.2996 184.76L78.8945 180.298C78.8945 180.298 78.4645 177.415 78.3495 176.541C78.2945 176.136 77.9595 175.831 77.5645 175.826L75.5344 175.791C75.0894 175.781 74.7194 176.151 74.7144 176.611L74.4844 182.891C74.8794 184.095 75.3394 185.14 75.8644 186.289L82.9597 186.314Z" fill="#B3B3B3"/>
<path d="M82.6431 184.484L80.3381 181.466L80.018 180.512C78.458 180.142 76.2279 180.792 76.2279 180.792L75.9329 182.151C75.8379 182.136 75.7429 182.111 75.6479 182.081C74.1979 181.606 74.6629 179.123 74.5329 179.123C74.4029 179.123 72.8828 186.443 72.8828 186.443H83.3932C83.3982 186.403 83.4032 186.363 83.4032 186.323C83.4582 185.554 82.9681 184.909 82.6431 184.484Z" fill="#1A1A1A"/>
<path d="M58.8706 113.195C55.2454 126.276 56.4655 148.675 57.0105 152.118C57.5655 155.595 64.9108 149.849 65.1508 146.342C65.2358 145.083 64.8958 143.823 64.8958 142.564C64.8958 141.45 65.1558 140.346 65.4108 139.257C66.8408 133.226 69.8609 127.195 71.291 121.164V112.615L58.8706 113.195Z" fill="#232033"/>
<path d="M55.6869 178.059C55.5969 173.062 55.6819 168.066 55.7669 163.069C55.8119 160.561 55.8519 158.048 55.8969 155.539C55.9569 152.002 56.1619 148.419 57.467 145.087C57.857 144.092 64.1172 141.524 64.8922 142.563C64.8922 142.563 65.4122 147.485 65.7422 149.713C65.9573 151.182 65.6672 152.666 65.3722 154.12C63.7922 162.035 62.9672 170.149 61.3871 178.059H55.6869Z" fill="#232033"/>
<path d="M79.3844 178.463C79.4744 173.467 79.2644 168.79 79.1794 163.794C79.1394 161.285 79.0944 158.772 79.0544 156.264C78.9944 152.726 78.7944 149.144 77.5193 145.811C77.1393 144.817 71.0091 142.249 70.2541 143.288C70.2541 143.288 69.7441 148.21 69.4241 150.438C69.2141 151.907 69.4991 153.391 69.7841 154.845C71.3291 162.759 72.0692 170.574 73.6142 178.483L79.3844 178.463Z" fill="#232033"/>
<path d="M61.7614 118.859C61.5314 118.809 61.3814 118.774 61.3214 118.759C60.1764 118.495 56.9813 116.751 56.6562 115.871C59.3763 109.581 59.4713 105.454 59.5663 101.456C59.6213 99.208 60.1664 94.4363 60.1664 94.4363C59.8964 93.472 60.7864 86.9116 61.7614 84.3383L70.9917 82.6445L74.6468 84.6781L75.4369 84.853L79.607 84.5432L87.2772 89.9494C87.0822 92.6925 85.1322 99.0231 84.4822 99.7826C84.4822 99.7826 82.8371 104.434 81.8171 106.488C80.092 109.965 78.312 113.563 78.162 120.353V120.383C77.8219 120.713 75.7069 121.278 74.7468 121.218C71.6717 121.033 62.1664 118.949 61.7614 118.859Z" fill="#CFD7E9"/>
<path d="M75.7403 88.7016L77.5304 87.5974L77.1804 85.0092L75.1353 84.3647L73.0102 84.0898L71.6052 86.2933L72.7652 88.0521L65.5 110.022L68.3251 115.298L73.1052 111.696L75.7403 88.7016Z" fill="#283380"/>
<path d="M79.793 82.5566L75.1328 84.3654L76.5529 84.9949L76.3879 91.4205L81.728 86.0592L79.793 82.5566Z" fill="#E7EBF4"/>
<path d="M71.6704 80.7676L75.1355 84.3651L73.5855 84.3401L71.0354 90.241L68.4453 83.1359L71.6704 80.7676Z" fill="#E7EBF4"/>
<path d="M60.1035 84.0754C59.1185 84.545 57.3734 85.5793 57.1284 86.2838C56.8834 86.9883 51.6632 101.878 50.2582 105.97C49.0682 109.952 56.7234 111.681 57.4434 110.667C58.1634 109.653 64.3386 94.1783 64.3386 94.1783L63.1986 84.0604C63.1986 84.0604 61.1435 83.5807 60.1035 84.0754Z" fill="#29253B"/>
<path d="M88.32 90.0311L81.2498 85.1895L74.8196 103.047L69.4844 125.826C72.0145 128.509 77.6546 129.019 78.4247 128.384C79.1947 127.755 79.3397 122.418 79.4297 121.409C80.3697 110.712 84.7999 100.049 84.7999 100.049C84.7999 100.049 88.22 92.6542 88.32 90.0311Z" fill="#29253B"/>
<path d="M67.9052 101.363L69.2353 82.5508L61.035 83.8649C60.02 86.2832 59.77 94.5524 59.77 94.5524C59.77 94.5524 59.99 106.049 56.0498 115.922C55.7798 116.802 53.5048 122.158 53.7998 122.873C54.0948 123.587 60.265 126.445 63.2851 125.281L67.9052 101.363Z" fill="#29253B"/>
<path d="M86.6165 116.483C86.8065 115.993 86.1814 110.707 84.3114 109.562C82.4413 108.418 63.6507 102.188 63.6507 102.188C63.6507 102.188 62.2857 103.636 62.3457 105.006C62.3457 105.006 75.4961 112.93 77.2462 113.919C78.9962 114.909 86.4265 116.977 86.6165 116.483Z" fill="#F0B297"/>
<path d="M64.412 102.626C64.412 102.626 61.727 100.218 61.5069 100.033L59.4219 105.664L63.252 105.245L64.412 102.626Z" fill="#F0B297"/>
<path d="M66.8523 102.098L64.3672 107.524C64.3672 107.524 76.3376 114.319 81.3677 116.583C86.3979 118.846 89.058 117.352 89.008 115.453C88.958 113.555 88.018 110.552 84.9279 109.038C81.8378 107.524 66.8523 102.098 66.8523 102.098Z" fill="#29253B"/>
<path d="M52.4234 109.181C52.5584 108.672 55.4885 103.225 57.6735 103.38C59.8586 103.535 80.7493 111.465 80.7493 111.465C80.7493 111.465 79.1342 114.218 78.2742 114.363C78.2742 114.363 67.3588 112.394 63.4087 112.019C61.4037 111.829 52.2884 109.691 52.4234 109.181Z" fill="#F0B297"/>
<path d="M76.7084 113.648C77.7384 114.543 79.0435 114.997 80.2285 115.632C80.7135 115.892 81.2986 116.146 81.7436 115.867C81.9936 115.712 82.1236 115.422 82.2486 115.147C82.6436 114.258 82.1286 112.754 82.5836 111.58C82.9036 110.755 83.0286 109.821 82.5786 109.776C81.3986 109.656 79.4285 110.236 78.0835 110.575C77.8884 110.625 77.7134 110.73 77.5734 110.875C77.0334 111.45 75.8334 112.889 76.7084 113.648Z" fill="#F0B297"/>
<path d="M81.8347 112.564C83.0497 112.864 83.8947 112.989 84.9098 112.974C85.5498 112.964 86.3298 112.584 88.3899 111.894C89.1549 111.64 88.3449 110.935 87.5549 111.105C86.3698 111.36 86.5798 111.37 85.1548 111.51C83.9998 111.62 83.0947 110.955 81.9947 110.88C81.2547 110.83 81.1097 112.384 81.8347 112.564Z" fill="#F0B297"/>
<path d="M81.9413 113.738C83.6863 113.998 84.2413 114.313 85.4014 114.268C86.2814 114.233 86.7664 113.983 88.2165 113.768C89.2115 113.624 88.8715 112.624 87.8764 112.769C86.3914 112.989 85.8664 112.944 85.8664 112.944C84.3763 113.029 82.9963 112.364 81.5262 112.269C80.5362 112.21 80.9562 113.594 81.9413 113.738Z" fill="#F0B297"/>
<path d="M81.2223 114.587C82.6224 115.187 83.9874 115.611 84.7075 115.646C85.0425 115.661 87.3975 115.232 88.0776 114.977C88.7526 114.722 88.3876 114.127 87.7526 114.197C87.2675 114.252 85.6525 114.412 84.6074 114.357C83.1224 114.287 81.0073 113.088 81.0073 113.088C80.0273 112.928 80.3023 114.197 81.2223 114.587Z" fill="#F0B297"/>
<path d="M80.7904 115.901C82.0354 116.39 82.5105 116.405 83.0705 116.545C83.3305 116.61 84.3205 116.65 84.9155 116.76C85.2355 116.82 86.1606 116.85 86.1606 116.85C86.4406 116.685 86.3406 116.235 86.0106 116.18C85.6256 116.115 84.9005 116.01 84.0805 115.811C82.9155 115.526 81.9504 114.741 80.8404 114.307C80.1004 114.017 80.0454 115.606 80.7904 115.901Z" fill="#F0B297"/>
<path d="M79.0547 110.6C79.0547 110.6 80.4747 109.63 81.6848 109.426C82.8948 109.221 84.1349 109.096 84.6299 109.156C85.4749 109.256 84.8999 110.39 83.7598 110.545C82.7948 110.675 82.2548 111.364 82.2548 111.364L79.0547 110.6Z" fill="#F0B297"/>
<path d="M75.4061 114.779L77.9412 109.163C77.9412 109.163 59.2606 102.862 57.6706 102.298C56.0805 101.738 52.9054 103.277 52.0854 105.355C51.2653 107.434 51.1553 109.243 53.2704 110.212C55.3805 111.181 75.4061 114.779 75.4061 114.779Z" fill="#29253B"/>
<path d="M84.313 78.384C84.578 75.481 85.3331 73.7922 85.7981 72.1134C86.1281 70.8592 86.4631 68.7107 85.0031 66.8221C83.558 64.8584 79.9329 63.7492 76.6178 64.6935C73.2777 65.6379 71.4276 67.5915 71.8376 69.815C72.0426 71.144 72.2376 72.9828 72.4626 74.3568C72.6477 75.496 72.3026 76.6402 72.7277 77.7544C73.5177 79.6681 77.0028 82.5711 79.3929 82.5711C81.3479 82.5661 84.128 79.6481 84.313 78.384Z" fill="#F0B297"/>
<path d="M78.9621 75.2103C78.9821 75.2702 79.0071 75.3202 79.0321 75.3702C79.0621 75.4201 79.0871 75.4751 79.1421 75.5051C79.1921 75.53 79.2671 75.5151 79.3221 75.4301C79.3521 75.3901 79.3721 75.3352 79.3771 75.2702C79.3821 75.2053 79.3771 75.1353 79.3521 75.0704C79.3271 75.0004 79.2871 74.9455 79.2421 74.9005C79.1971 74.8555 79.1471 74.8255 79.0971 74.8155C79.0021 74.7906 78.9321 74.8205 78.9121 74.8755C78.8871 74.9305 78.9021 74.9904 78.9121 75.0504C78.9271 75.0954 78.9421 75.1503 78.9621 75.2103Z" fill="#F2F2F2"/>
<path d="M79.5677 75.4051C79.5777 75.3652 79.5827 75.3302 79.5927 75.3002C79.5977 75.2702 79.6027 75.2403 79.6077 75.2103C79.6127 75.1803 79.6127 75.1503 79.6127 75.1103C79.6127 75.0754 79.6077 75.0304 79.6027 74.9904C79.5927 74.9055 79.5777 74.8205 79.5827 74.7456C79.5877 74.6707 79.6077 74.6107 79.6477 74.5757C79.6877 74.5407 79.7277 74.5407 79.7727 74.5707C79.8177 74.6007 79.8677 74.6607 79.9177 74.7506C79.9677 74.8405 80.0177 74.9605 80.0327 75.1053C80.0377 75.1803 80.0327 75.2552 80.0177 75.3302C80.0027 75.4051 79.9727 75.4701 79.9427 75.5351C79.9127 75.6 79.8777 75.66 79.8377 75.7099C79.7977 75.7649 79.7577 75.8099 79.7227 75.8548C79.6427 75.9398 79.5727 76.0047 79.5077 76.0497C79.3827 76.1446 79.3077 76.1796 79.2677 76.1146C79.2277 76.0547 79.2327 75.9747 79.2977 75.8648C79.3327 75.8099 79.3777 75.7449 79.4327 75.67C79.4577 75.63 79.4877 75.59 79.5077 75.545C79.5377 75.5051 79.5577 75.4551 79.5677 75.4051Z" fill="#D1785E"/>
<path d="M81.4015 72.4277C81.7265 72.3527 82.0615 72.3377 82.3915 72.3827C82.7216 72.4227 83.0416 72.5226 83.3416 72.6775C83.6366 72.8324 83.5066 73.1322 83.2116 73.0622C82.9166 72.9923 82.6265 72.9373 82.3315 72.8974C82.0365 72.8574 81.7415 72.8374 81.4415 72.8324C81.1415 72.8224 81.0815 72.5026 81.4015 72.4277Z" fill="#1A1A1A"/>
<path d="M77.4115 72.4023C77.0865 72.3373 76.7515 72.3273 76.4214 72.3773C76.0914 72.4273 75.7714 72.5372 75.4814 72.6971C75.1914 72.862 75.3264 73.1568 75.6214 73.0818C75.9114 73.0019 76.2014 72.9419 76.4964 72.8969C76.7915 72.852 77.0815 72.822 77.3865 72.812C77.6815 72.797 77.7315 72.4722 77.4115 72.4023Z" fill="#1A1A1A"/>
<path d="M77.1051 74.8766L77.1001 74.1071C77.0951 73.7374 76.7901 73.4326 76.4201 73.4376C76.0501 73.4426 75.7451 73.7473 75.7501 74.1171L75.7551 74.8865C75.7551 75.2563 77.1051 75.2463 77.1051 74.8766Z" fill="#1A1A1A"/>
<path d="M81.7422 74.8707L81.7472 74.1012C81.7472 73.7315 82.0522 73.4267 82.4272 73.4317C82.7972 73.4317 83.1022 73.7365 83.0972 74.1112L83.0922 74.8807C83.0922 75.2454 81.7422 75.2404 81.7422 74.8707Z" fill="#1A1A1A"/>
<path d="M77.9763 77.8187C79.1314 78.2983 80.5014 78.0885 81.4715 77.314C81.6215 77.1941 81.4115 76.9842 81.2615 77.1042C80.3664 77.8137 79.1014 77.9686 78.0563 77.5289C77.9813 77.4989 77.8913 77.5638 77.8713 77.6338C77.8513 77.7187 77.9063 77.7887 77.9763 77.8187Z" fill="#A33939"/>
<path d="M83.0009 71.2733C82.2459 71.1384 81.5359 70.7437 81.1509 70.1341C80.6358 69.3147 81.1309 68.1805 80.3908 67.9557C79.2108 67.6009 76.8707 68.7051 75.8207 68.1006C75.6007 67.9756 75.4157 67.8008 75.2757 67.6009C75.0257 67.9557 74.6556 68.2704 74.3006 68.5502C73.6556 69.0549 72.9456 69.6345 72.9056 70.3989C72.8806 70.8686 73.1156 71.3133 73.2456 71.768C73.4906 72.6324 72.8056 75.2206 72.8056 75.2206C72.5506 74.8708 71.8206 73.5567 71.6356 73.0021C71.4205 72.3576 71.5205 71.6631 71.3605 71.0035C71.1905 70.299 70.7205 69.6695 70.5755 68.96C70.4105 68.1505 70.7155 67.2811 71.3455 66.6815C71.2955 66.2868 71.2805 65.8921 71.3255 65.4974C71.4205 64.658 71.8156 63.8085 72.5606 63.2889C73.2206 62.8242 74.1856 62.6793 74.9307 62.9991C76.2357 61.8749 77.7707 60.8506 79.5208 61.0205C81.1009 61.1754 82.3359 62.2746 83.7909 62.8442C84.641 63.179 85.571 63.3289 86.431 63.6437C87.2911 63.9584 88.1261 64.4931 88.4161 65.2825C88.5611 65.6822 88.5111 66.1419 88.3011 66.5167C88.5511 66.6915 88.7411 66.9514 88.8111 67.2262C88.9611 67.8357 88.6861 68.4603 88.3561 69.0149C88.0261 69.5645 86.601 70.304 86.491 70.9186C86.366 71.6131 84.631 75.8751 84.631 75.8751L84.916 71.3333C84.916 71.3333 83.9059 71.4332 83.0009 71.2733Z" fill="#2C1E1C"/>
<path d="M74.2085 77.2643C73.8585 77.3642 73.4735 77.2893 73.1485 77.1294C72.8235 76.9695 72.5484 76.7297 72.2884 76.4799C71.6034 75.8253 70.9684 74.9959 71.0184 74.0715C71.0334 73.7618 71.1384 73.442 71.3834 73.2371C71.6734 72.9923 72.1134 72.9623 72.4684 73.0972C72.8235 73.2321 73.1085 73.5119 73.3135 73.8217L74.2085 77.2643Z" fill="#F0B297"/>
<path d="M112.017 136.327H82.9556C82.7206 136.327 82.5756 136.087 82.6406 135.792C82.7056 135.498 82.9556 135.258 83.1906 135.258H112.252C112.487 135.258 112.632 135.498 112.567 135.792C112.502 136.087 112.257 136.327 112.017 136.327Z" fill="#DBDAE1"/>
<path d="M77.0628 136.283H99.4585C100.014 136.283 100.519 135.773 100.379 135.343L94.3583 116.991C94.2533 116.676 93.9333 116.477 93.5183 116.477H71.9576C71.1226 116.477 70.3726 117.246 70.5826 117.886L76.5078 135.938C76.5728 136.148 76.7878 136.283 77.0628 136.283Z" fill="#DBDAE1"/>
<path d="M76.2732 136.324H98.7139C99.274 136.324 99.774 135.809 99.634 135.384L93.5988 116.997C93.4938 116.682 93.1688 116.482 92.7587 116.482H71.153C70.318 116.482 69.958 117.182 70.168 117.821L75.7082 135.979C75.7832 136.189 75.9982 136.324 76.2732 136.324Z" fill="#6B6979"/>
<path d="M139.646 136.322H48.2578V138.371H139.646V136.322Z" fill="#A5A3B4"/>
<path d="M134.208 138.371H53.6953V139.59H134.208V138.371Z" fill="#6B6979"/>
<path d="M56.4844 139.195V187.222H67.2447V153.82H121.386V187.222H132.147V139.195H56.4844Z" fill="#6B6979"/>
<path d="M147.338 81.341C151.368 77.3137 151.368 70.784 147.338 66.7566C143.308 62.7293 136.773 62.7293 132.743 66.7566C128.713 70.784 128.713 77.3137 132.743 81.341C136.773 85.3684 143.308 85.3684 147.338 81.341Z" fill="#CFD7E9"/>
<path d="M140.044 85.1683C133.909 85.1683 128.914 80.1818 128.914 74.0461C128.914 67.9153 133.909 62.9238 140.044 62.9238C146.18 62.9238 151.175 67.9103 151.175 74.0461C151.17 80.1818 146.18 85.1683 140.044 85.1683ZM140.044 63.9531C134.474 63.9531 129.939 68.4849 129.939 74.0511C129.939 79.6172 134.474 84.149 140.044 84.149C145.615 84.149 150.15 79.6172 150.15 74.0511C150.145 68.48 145.615 63.9531 140.044 63.9531Z" fill="#29253B"/>
<path d="M140.451 65.4711C140.451 65.696 140.271 65.8758 140.046 65.8758C139.821 65.8758 139.641 65.696 139.641 65.4711C139.641 65.2463 139.821 65.0664 140.046 65.0664C140.271 65.0664 140.451 65.2463 140.451 65.4711Z" fill="#29253B"/>
<path d="M140.451 82.8442C140.451 83.069 140.271 83.2489 140.046 83.2489C139.821 83.2489 139.641 83.069 139.641 82.8442C139.641 82.6193 139.821 82.4395 140.046 82.4395C140.271 82.4395 140.451 82.6193 140.451 82.8442Z" fill="#29253B"/>
<path d="M149.185 73.5923C149.185 73.8172 149.005 73.997 148.78 73.997C148.555 73.997 148.375 73.8172 148.375 73.5923C148.375 73.3675 148.555 73.1876 148.78 73.1876C149 73.1826 149.185 73.3675 149.185 73.5923Z" fill="#29253B"/>
<path d="M131.537 74.0513C131.537 74.2761 131.357 74.456 131.132 74.456C130.907 74.456 130.727 74.2761 130.727 74.0513C130.727 73.8265 130.907 73.6466 131.132 73.6466C131.352 73.6416 131.537 73.8265 131.537 74.0513Z" fill="#29253B"/>
<path d="M141.399 74.3764C141.399 75.031 140.869 75.5556 140.219 75.5556C139.564 75.5556 139.039 75.026 139.039 74.3764C139.039 73.7269 139.569 73.1973 140.219 73.1973C140.869 73.1973 141.399 73.7269 141.399 74.3764Z" fill="#29253B"/>
<path d="M140.202 74.016C140.282 74.2008 140.182 74.4207 139.972 74.5106C139.767 74.6006 139.532 74.5206 139.457 74.3358L137.722 70.3285C137.642 70.1437 137.747 69.9238 137.952 69.8339C138.157 69.744 138.387 69.8239 138.467 70.0088L140.202 74.016Z" fill="#29253B"/>
<path d="M140.758 74.5106C140.608 74.6005 140.393 74.5206 140.283 74.3357C140.173 74.1508 140.208 73.926 140.363 73.836L146.738 70.0937C146.888 70.0037 147.103 70.0837 147.213 70.2685C147.323 70.4534 147.288 70.6782 147.133 70.7682L140.758 74.5106Z" fill="#29253B"/>
</g>
<defs>
<clipPath id="clip0_6010_45874">
<rect width="154" height="129" fill="white" transform="translate(17 61)"/>
</clipPath>
</defs>
</svg>
