<svg width="94" height="20" viewBox="0 0 94 20" fill="none" xmlns="http://www.w3.org/2000/svg">
<path d="M17.4963 20H2.81625C1.34625 20 0.15625 18.81 0.15625 17.34V2.66C0.15625 1.19 1.34625 0 2.81625 0H17.4862C18.9662 0 20.1562 1.19 20.1562 2.66V17.33C20.1562 18.81 18.9662 20 17.4963 20Z" fill="#FCFCFC"/>
<path d="M10.1562 15.9998V6.34978C10.1562 4.29978 11.7962 3.65978 13.4362 4.15978" stroke="#3B5998" stroke-miterlimit="10" stroke-linecap="round" stroke-linejoin="round"/>
<path d="M7.65625 9H12.6562" stroke="#3B5998" stroke-miterlimit="10" stroke-linecap="round" stroke-linejoin="round"/>
<path d="M56.1663 3.89C55.4263 4.21 54.6263 4.42 53.8063 4.53C54.6563 4.03 55.3063 3.24 55.6063 2.3C54.8163 2.77 53.9363 3.09 53.0063 3.28C52.2563 2.49 51.1863 2 50.0163 2C47.7463 2 45.9163 3.81 45.9163 6.04C45.9163 6.36 45.9463 6.67 46.0063 6.96C42.6062 6.79 39.5863 5.19 37.5563 2.74C37.2063 3.34 36.9962 4.03 36.9962 4.78C36.9962 6.18 37.7263 7.42 38.8163 8.13C38.1562 8.12 37.5062 7.93 36.9662 7.63V7.67C36.9662 9.63 38.3863 11.26 40.2463 11.64C39.9163 11.73 39.5462 11.77 39.1662 11.77C38.9062 11.77 38.6362 11.76 38.3862 11.7C38.9162 13.3 40.4262 14.48 42.2162 14.51C40.8262 15.59 39.0462 16.23 37.1363 16.23C36.7962 16.23 36.4762 16.21 36.1562 16.17C37.9863 17.34 40.1363 18 42.4563 18C50.0063 18 54.1263 11.85 54.1263 6.51C54.1263 6.33 54.1163 6.16 54.1063 5.99C54.9263 5.42 55.6063 4.71 56.1663 3.89Z" fill="white"/>
<path d="M90.4963 20H75.8162C74.3462 20 73.1562 18.81 73.1562 17.34V2.66C73.1562 1.19 74.3462 0 75.8162 0H90.4862C91.9662 0 93.1562 1.19 93.1562 2.66V17.33C93.1562 18.81 91.9662 20 90.4963 20Z" fill="#FCFCFC"/>
<path d="M87.1562 10C87.1562 12.21 85.3663 14 83.1562 14C80.9462 14 79.1562 12.21 79.1562 10C79.1562 7.79 80.9462 6 83.1562 6C85.3663 6 87.1562 7.79 87.1562 10Z" fill="#3B5998"/>
<path d="M90.1562 3.5C90.1562 3.78 89.9363 4 89.6562 4C89.3762 4 89.1562 3.78 89.1562 3.5C89.1562 3.22 89.3762 3 89.6562 3C89.9363 3 90.1562 3.22 90.1562 3.5Z" stroke="#3B5998" stroke-miterlimit="10" stroke-linecap="round" stroke-linejoin="round"/>
</svg>
